<svg aria-hidden="true" style="position: absolute; width: 0; height: 0; overflow: hidden;" version="1.1" xmlns="http://www.w3.org/2000/svg" xmlns:xlink="http://www.w3.org/1999/xlink">
<defs>
<symbol id="icon-linked" viewBox="0 0 32 32">
<path d="M0 16c0-8.837 7.163-16 16-16s16 7.163 16 16c0 8.837-7.163 16-16 16s-16-7.163-16-16z"></path>
<path fill="none" stroke="#d1d5dc" style="stroke: var(--color19, #d1d5dc)" stroke-linejoin="round" stroke-linecap="round" stroke-miterlimit="4" stroke-width="1.3333" d="M18.667 13.333c1.061 0 2.078 0.421 2.828 1.172s1.172 1.768 1.172 2.828v4.667h-2.667v-4.667c0-0.354-0.14-0.693-0.39-0.943s-0.589-0.391-0.943-0.391c-0.354 0-0.693 0.14-0.943 0.391s-0.391 0.589-0.391 0.943v4.667h-2.667v-4.667c0-1.061 0.421-2.078 1.172-2.828s1.768-1.172 2.828-1.172z"></path>
<path fill="none" stroke="#d1d5dc" style="stroke: var(--color19, #d1d5dc)" stroke-linejoin="round" stroke-linecap="round" stroke-miterlimit="4" stroke-width="1.3333" d="M12 14h-2.667v8h2.667v-8z"></path>
<path fill="none" stroke="#d1d5dc" style="stroke: var(--color19, #d1d5dc)" stroke-linejoin="round" stroke-linecap="round" stroke-miterlimit="4" stroke-width="1.3333" d="M10.667 12c0.736 0 1.333-0.597 1.333-1.333s-0.597-1.333-1.333-1.333-1.333 0.597-1.333 1.333c0 0.736 0.597 1.333 1.333 1.333z"></path>
</symbol>
<symbol id="icon-instag" viewBox="0 0 32 32">
<path d="M0 16c0-8.837 7.163-16 16-16s16 7.163 16 16c0 8.837-7.163 16-16 16s-16-7.163-16-16z"></path>
<path fill="none" stroke="#d1d5dc" style="stroke: var(--color18, #d1d5dc)" stroke-linejoin="round" stroke-linecap="round" stroke-miterlimit="4" stroke-width="1.3333" d="M19.333 9.333h-6.667c-1.841 0-3.333 1.492-3.333 3.333v6.667c0 1.841 1.492 3.333 3.333 3.333h6.667c1.841 0 3.333-1.492 3.333-3.333v-6.667c0-1.841-1.492-3.333-3.333-3.333z"></path>
<path fill="none" stroke="#d1d5dc" style="stroke: var(--color18, #d1d5dc)" stroke-linejoin="round" stroke-linecap="round" stroke-miterlimit="4" stroke-width="1.3333" d="M18.667 15.58c0.082 0.555-0.012 1.121-0.271 1.619s-0.667 0.902-1.168 1.154c-0.501 0.252-1.069 0.34-1.623 0.251s-1.065-0.351-1.462-0.747c-0.397-0.397-0.658-0.908-0.747-1.462s-0.001-1.122 0.251-1.623c0.252-0.501 0.656-0.91 1.154-1.168s1.064-0.353 1.619-0.271c0.566 0.084 1.090 0.348 1.494 0.752s0.668 0.928 0.752 1.494z"></path>
<path fill="none" stroke="#d1d5dc" style="stroke: var(--color18, #d1d5dc)" stroke-linejoin="round" stroke-linecap="round" stroke-miterlimit="4" stroke-width="1.3333" d="M19.667 12.333h0.007"></path>
</symbol>
<symbol id="icon-facebook" viewBox="0 0 32 32">
<path d="M0 16c0-8.837 7.163-16 16-16s16 7.163 16 16c0 8.837-7.163 16-16 16s-16-7.163-16-16z"></path>
<path fill="none" stroke="#d1d5dc" style="stroke: var(--color17, #d1d5dc)" stroke-linejoin="round" stroke-linecap="round" stroke-miterlimit="4" stroke-width="1.3333" d="M20 9.333h-2c-0.884 0-1.732 0.351-2.357 0.976s-0.976 1.473-0.976 2.357v2h-2v2.667h2v5.333h2.667v-5.333h2l0.667-2.667h-2.667v-2c0-0.177 0.070-0.346 0.195-0.471s0.295-0.195 0.471-0.195h2v-2.667z"></path>
</symbol>
<symbol id="icon-map_pin" viewBox="0 0 32 32">
<path fill="none" stroke="#ff8904" style="stroke: var(--color16, #ff8904)" stroke-linejoin="round" stroke-linecap="round" stroke-miterlimit="4" stroke-width="2.6667" d="M26.667 13.334c0 6.657-7.385 13.591-9.865 15.732-0.231 0.174-0.512 0.268-0.801 0.268s-0.57-0.094-0.801-0.268c-2.48-2.141-9.865-9.075-9.865-15.732 0-2.829 1.124-5.542 3.124-7.542s4.713-3.124 7.542-3.124c2.829 0 5.542 1.124 7.543 3.124s3.124 4.713 3.124 7.542z"></path>
<path fill="none" stroke="#ff8904" style="stroke: var(--color16, #ff8904)" stroke-linejoin="round" stroke-linecap="round" stroke-miterlimit="4" stroke-width="2.6667" d="M16 17.333c2.209 0 4-1.791 4-4s-1.791-4-4-4c-2.209 0-4 1.791-4 4s1.791 4 4 4z"></path>
</symbol>
<symbol id="icon-mail" viewBox="0 0 32 32">
<path fill="none" stroke="#ff8904" style="stroke: var(--color15, #ff8904)" stroke-linejoin="round" stroke-linecap="round" stroke-miterlimit="4" stroke-width="2.6667" d="M26.667 5.333h-21.333c-1.473 0-2.667 1.194-2.667 2.667v16c0 1.473 1.194 2.667 2.667 2.667h21.333c1.473 0 2.667-1.194 2.667-2.667v-16c0-1.473-1.194-2.667-2.667-2.667z"></path>
<path fill="none" stroke="#ff8904" style="stroke: var(--color15, #ff8904)" stroke-linejoin="round" stroke-linecap="round" stroke-miterlimit="4" stroke-width="2.6667" d="M29.333 9.333l-11.96 7.6c-0.412 0.258-0.888 0.395-1.373 0.395s-0.962-0.137-1.373-0.395l-11.96-7.6"></path>
</symbol>
<symbol id="icon-phone_red" viewBox="0 0 32 32">
<path fill="none" stroke="#ff8904" style="stroke: var(--color14, #ff8904)" stroke-linejoin="round" stroke-linecap="round" stroke-miterlimit="4" stroke-width="2.6667" d="M29.333 22.56v4c0.002 0.371-0.074 0.739-0.223 1.079s-0.367 0.646-0.641 0.897c-0.274 0.251-0.597 0.442-0.948 0.561s-0.725 0.163-1.094 0.13c-4.103-0.446-8.044-1.848-11.507-4.093-3.222-2.047-5.953-4.778-8-8-2.253-3.478-3.656-7.439-4.093-11.56-0.033-0.369 0.010-0.74 0.129-1.091s0.308-0.673 0.558-0.947c0.25-0.273 0.553-0.492 0.892-0.641s0.705-0.227 1.075-0.227h4c0.647-0.006 1.274 0.223 1.765 0.645s0.811 1.008 0.902 1.649c0.169 1.28 0.482 2.537 0.933 3.747 0.179 0.477 0.218 0.996 0.112 1.495s-0.353 0.956-0.712 1.319l-1.693 1.693c1.898 3.338 4.662 6.102 8 8l1.693-1.693c0.362-0.358 0.82-0.606 1.319-0.712s1.017-0.068 1.494 0.112c1.21 0.451 2.467 0.764 3.747 0.933 0.648 0.091 1.239 0.418 1.662 0.917s0.648 1.136 0.631 1.79z"></path>
</symbol>
<symbol id="icon-phone" viewBox="0 0 32 32">
<path fill="none" stroke="#fff" style="stroke: var(--color13, #fff)" stroke-linejoin="round" stroke-linecap="round" stroke-miterlimit="4" stroke-width="2.6667" d="M29.333 22.56v4c0.002 0.371-0.075 0.739-0.223 1.079s-0.367 0.646-0.64 0.897-0.597 0.442-0.948 0.561c-0.352 0.119-0.724 0.163-1.094 0.13-4.103-0.446-8.044-1.848-11.507-4.093-3.222-2.047-5.953-4.778-8-8-2.253-3.478-3.656-7.439-4.093-11.56-0.033-0.369 0.010-0.74 0.129-1.091s0.308-0.673 0.558-0.947c0.25-0.273 0.553-0.492 0.892-0.641s0.705-0.227 1.075-0.227h4c0.647-0.006 1.274 0.223 1.765 0.645s0.811 1.008 0.902 1.649c0.169 1.28 0.482 2.537 0.933 3.747 0.179 0.477 0.218 0.996 0.112 1.495s-0.353 0.956-0.712 1.319l-1.693 1.693c1.898 3.338 4.662 6.102 8 8l1.693-1.693c0.363-0.359 0.82-0.606 1.319-0.712s1.017-0.068 1.494 0.112c1.21 0.451 2.467 0.764 3.747 0.933 0.648 0.091 1.239 0.418 1.662 0.917s0.648 1.136 0.631 1.79z"></path>
</symbol>
<symbol id="icon-shield" viewBox="0 0 32 32">
<path fill="#fff" style="fill: var(--color12, #fff)" opacity="0.1" d="M0 16c0-8.837 7.163-16 16-16s16 7.163 16 16c0 8.837-7.163 16-16 16s-16-7.163-16-16z"></path>
<path fill="#fff" style="fill: var(--color12, #fff)" opacity="0.2" d="M16 32v-0.8c-8.395 0-15.2-6.805-15.2-15.2h-1.6c0 9.278 7.522 16.8 16.8 16.8v-0.8zM32 16h-0.8c0 8.395-6.805 15.2-15.2 15.2v1.6c9.278 0 16.8-7.522 16.8-16.8h-0.8zM16 0v0.8c8.395 0 15.2 6.805 15.2 15.2h1.6c0-9.278-7.522-16.8-16.8-16.8v0.8zM16 0v-0.8c-9.278 0-16.8 7.522-16.8 16.8h1.6c0-8.395 6.805-15.2 15.2-15.2v-0.8z"></path>
<path fill="none" stroke="#fff" style="stroke: var(--color12, #fff)" stroke-linejoin="round" stroke-linecap="round" stroke-miterlimit="4" stroke-width="1.3333" d="M21.333 16.667c0 3.333-2.333 5-5.107 5.967-0.145 0.049-0.303 0.047-0.447-0.007-2.78-0.96-5.113-2.627-5.113-5.96v-4.667c0-0.177 0.070-0.346 0.195-0.471s0.295-0.195 0.471-0.195c1.333 0 3-0.8 4.16-1.813 0.141-0.121 0.321-0.187 0.507-0.187s0.365 0.066 0.507 0.187c1.167 1.020 2.827 1.813 4.16 1.813 0.177 0 0.346 0.070 0.471 0.195s0.195 0.295 0.195 0.471v4.667z"></path>
</symbol>
<symbol id="icon-geomark" viewBox="0 0 32 32">
<path fill="#fff" style="fill: var(--color11, #fff)" opacity="0.1" d="M0 16c0-8.837 7.163-16 16-16s16 7.163 16 16c0 8.837-7.163 16-16 16s-16-7.163-16-16z"></path>
<path fill="#fff" style="fill: var(--color11, #fff)" opacity="0.2" d="M16 32v-0.8c-8.395 0-15.2-6.805-15.2-15.2h-1.6c0 9.278 7.522 16.8 16.8 16.8v-0.8zM32 16h-0.8c0 8.395-6.805 15.2-15.2 15.2v1.6c9.278 0 16.8-7.522 16.8-16.8h-0.8zM16 0v0.8c8.395 0 15.2 6.805 15.2 15.2h1.6c0-9.278-7.522-16.8-16.8-16.8v0.8zM16 0v-0.8c-9.278 0-16.8 7.522-16.8 16.8h1.6c0-8.395 6.805-15.2 15.2-15.2v-0.8z"></path>
<path fill="none" stroke="#fff" style="stroke: var(--color11, #fff)" stroke-linejoin="round" stroke-linecap="round" stroke-miterlimit="4" stroke-width="1.3333" d="M21.333 14.667c0 3.329-3.693 6.795-4.933 7.866-0.116 0.087-0.256 0.134-0.401 0.134s-0.285-0.047-0.401-0.134c-1.24-1.071-4.933-4.537-4.933-7.866 0-1.414 0.562-2.771 1.562-3.771s2.357-1.562 3.771-1.562c1.414 0 2.771 0.562 3.771 1.562s1.562 2.357 1.562 3.771z"></path>
<path fill="none" stroke="#fff" style="stroke: var(--color11, #fff)" stroke-linejoin="round" stroke-linecap="round" stroke-miterlimit="4" stroke-width="1.3333" d="M16 16.667c1.105 0 2-0.895 2-2s-0.895-2-2-2-2 0.895-2 2c0 1.105 0.895 2 2 2z"></path>
</symbol>
<symbol id="icon-blat" viewBox="0 0 32 32">
<path fill="#fff" style="fill: var(--color10, #fff)" opacity="0.1" d="M0 16c0-8.837 7.163-16 16-16s16 7.163 16 16c0 8.837-7.163 16-16 16s-16-7.163-16-16z"></path>
<path fill="#fff" style="fill: var(--color10, #fff)" opacity="0.2" d="M16 32v-0.8c-8.395 0-15.2-6.805-15.2-15.2h-1.6c0 9.278 7.522 16.8 16.8 16.8v-0.8zM32 16h-0.8c0 8.395-6.805 15.2-15.2 15.2v1.6c9.278 0 16.8-7.522 16.8-16.8h-0.8zM16 0v0.8c8.395 0 15.2 6.805 15.2 15.2h1.6c0-9.278-7.522-16.8-16.8-16.8v0.8zM16 0v-0.8c-9.278 0-16.8 7.522-16.8 16.8h1.6c0-8.395 6.805-15.2 15.2-15.2v-0.8z"></path>
<path fill="none" stroke="#fff" style="stroke: var(--color10, #fff)" stroke-linejoin="round" stroke-linecap="round" stroke-miterlimit="4" stroke-width="1.3333" d="M18 9.333h-6c-0.354 0-0.693 0.14-0.943 0.391s-0.391 0.589-0.391 0.943v10.667c0 0.354 0.14 0.693 0.391 0.943s0.589 0.391 0.943 0.391h8c0.354 0 0.693-0.14 0.943-0.391s0.391-0.589 0.391-0.943v-8.667l-3.333-3.333z"></path>
<path fill="none" stroke="#fff" style="stroke: var(--color10, #fff)" stroke-linejoin="round" stroke-linecap="round" stroke-miterlimit="4" stroke-width="1.3333" d="M17.333 9.333v2.667c0 0.354 0.14 0.693 0.391 0.943s0.589 0.391 0.943 0.391h2.667"></path>
<path fill="none" stroke="#fff" style="stroke: var(--color10, #fff)" stroke-linejoin="round" stroke-linecap="round" stroke-miterlimit="4" stroke-width="1.3333" d="M14.667 14h-1.333"></path>
<path fill="none" stroke="#fff" style="stroke: var(--color10, #fff)" stroke-linejoin="round" stroke-linecap="round" stroke-miterlimit="4" stroke-width="1.3333" d="M18.667 16.667h-5.333"></path>
<path fill="none" stroke="#fff" style="stroke: var(--color10, #fff)" stroke-linejoin="round" stroke-linecap="round" stroke-miterlimit="4" stroke-width="1.3333" d="M18.667 19.333h-5.333"></path>
</symbol>
<symbol id="icon-euro" viewBox="0 0 32 32">
<path fill="#fff" style="fill: var(--color9, #fff)" opacity="0.1" d="M0 16c0-8.837 7.163-16 16-16s16 7.163 16 16c0 8.837-7.163 16-16 16s-16-7.163-16-16z"></path>
<path fill="#fff" style="fill: var(--color9, #fff)" opacity="0.2" d="M16 32v-0.8c-8.395 0-15.2-6.805-15.2-15.2h-1.6c0 9.278 7.522 16.8 16.8 16.8v-0.8zM32 16h-0.8c0 8.395-6.805 15.2-15.2 15.2v1.6c9.278 0 16.8-7.522 16.8-16.8h-0.8zM16 0v0.8c8.395 0 15.2 6.805 15.2 15.2h1.6c0-9.278-7.522-16.8-16.8-16.8v0.8zM16 0v-0.8c-9.278 0-16.8 7.522-16.8 16.8h1.6c0-8.395 6.805-15.2 15.2-15.2v-0.8z"></path>
<path fill="none" stroke="#fff" style="stroke: var(--color9, #fff)" stroke-linejoin="round" stroke-linecap="round" stroke-miterlimit="4" stroke-width="1.3333" d="M10.667 14.667h8"></path>
<path fill="none" stroke="#fff" style="stroke: var(--color9, #fff)" stroke-linejoin="round" stroke-linecap="round" stroke-miterlimit="4" stroke-width="1.3333" d="M10.667 17.333h6"></path>
<path fill="none" stroke="#fff" style="stroke: var(--color9, #fff)" stroke-linejoin="round" stroke-linecap="round" stroke-miterlimit="4" stroke-width="1.3333" d="M20.667 12c-0.949-0.862-2.185-1.337-3.467-1.333-0.692 0.009-1.375 0.154-2.010 0.426s-1.211 0.668-1.694 1.163c-0.483 0.495-0.863 1.081-1.12 1.723s-0.384 1.329-0.375 2.021c0 2.933 2.333 5.333 5.2 5.333 1.333 0 2.533-0.533 3.467-1.333"></path>
</symbol>
<symbol id="icon-hamer" viewBox="0 0 32 32">
<path fill="#dbeafe" style="fill: var(--color1, #dbeafe)" d="M0 6.667c0-3.682 2.985-6.667 6.667-6.667h18.667c3.682 0 6.667 2.985 6.667 6.667v18.667c0 3.682-2.985 6.667-6.667 6.667h-18.667c-3.682 0-6.667-2.985-6.667-6.667v-18.667z"></path>
<path fill="none" stroke="#1447e6" style="stroke: var(--color2, #1447e6)" stroke-linejoin="round" stroke-linecap="round" stroke-miterlimit="4" stroke-width="1.3333" d="M18 16l-5.582 5.582c-0.265 0.265-0.625 0.414-1 0.414s-0.735-0.149-1-0.414c-0.265-0.265-0.414-0.625-0.414-1s0.149-0.735 0.414-1l5.582-5.582"></path>
<path fill="none" stroke="#1447e6" style="stroke: var(--color2, #1447e6)" stroke-linejoin="round" stroke-linecap="round" stroke-miterlimit="4" stroke-width="1.3333" d="M20 18l2.667-2.667"></path>
<path fill="none" stroke="#1447e6" style="stroke: var(--color2, #1447e6)" stroke-linejoin="round" stroke-linecap="round" stroke-miterlimit="4" stroke-width="1.3333" d="M22.333 15.667l-1.276-1.276c-0.25-0.25-0.391-0.589-0.391-0.943v-0.781l-1.507-1.507c-0.744-0.743-1.75-1.164-2.801-1.171l-2.359-0.016 0.613 0.547c0.436 0.386 0.784 0.86 1.023 1.391s0.363 1.106 0.363 1.689v1.067l1.333 1.333h0.781c0.354 0 0.693 0.141 0.943 0.391l1.276 1.276"></path>
</symbol>
<symbol id="icon-door" viewBox="0 0 32 32">
<path fill="#dbeafe" style="fill: var(--color1, #dbeafe)" d="M0 6.667c0-3.682 2.985-6.667 6.667-6.667h18.667c3.682 0 6.667 2.985 6.667 6.667v18.667c0 3.682-2.985 6.667-6.667 6.667h-18.667c-3.682 0-6.667-2.985-6.667-6.667v-18.667z"></path>
<path fill="none" stroke="#1447e6" style="stroke: var(--color2, #1447e6)" stroke-linejoin="round" stroke-linecap="round" stroke-miterlimit="4" stroke-width="1.3333" d="M16.667 10.667h2c0.354 0 0.693 0.14 0.943 0.391s0.391 0.589 0.391 0.943v9.333"></path>
<path fill="none" stroke="#1447e6" style="stroke: var(--color2, #1447e6)" stroke-linejoin="round" stroke-linecap="round" stroke-miterlimit="4" stroke-width="1.3333" d="M9.333 21.333h2"></path>
<path fill="none" stroke="#1447e6" style="stroke: var(--color2, #1447e6)" stroke-linejoin="round" stroke-linecap="round" stroke-miterlimit="4" stroke-width="1.3333" d="M16.667 21.333h6"></path>
<path fill="none" stroke="#1447e6" style="stroke: var(--color2, #1447e6)" stroke-linejoin="round" stroke-linecap="round" stroke-miterlimit="4" stroke-width="1.3333" d="M14.667 16v0.007"></path>
<path fill="none" stroke="#1447e6" style="stroke: var(--color2, #1447e6)" stroke-linejoin="round" stroke-linecap="round" stroke-miterlimit="4" stroke-width="1.3333" d="M16.667 11.041v10.771c0 0.101-0.023 0.201-0.068 0.292s-0.109 0.171-0.189 0.233-0.173 0.106-0.272 0.127c-0.099 0.021-0.202 0.019-0.3-0.005l-4.505-1.126v-9.625c0-0.297 0.099-0.586 0.282-0.82s0.439-0.401 0.728-0.473l2.667-0.667c0.197-0.049 0.402-0.053 0.6-0.011s0.384 0.129 0.544 0.253c0.16 0.125 0.289 0.284 0.378 0.466s0.135 0.382 0.135 0.585z"></path>
</symbol>
<symbol id="icon-box" viewBox="0 0 32 32">
<path fill="#dbeafe" style="fill: var(--color1, #dbeafe)" d="M0 6.667c0-3.682 2.985-6.667 6.667-6.667h18.667c3.682 0 6.667 2.985 6.667 6.667v18.667c0 3.682-2.985 6.667-6.667 6.667h-18.667c-3.682 0-6.667-2.985-6.667-6.667v-18.667z"></path>
<path fill="none" stroke="#1447e6" style="stroke: var(--color2, #1447e6)" stroke-linejoin="round" stroke-linecap="round" stroke-miterlimit="4" stroke-width="1.3333" d="M15.333 22.487c0.203 0.117 0.433 0.179 0.667 0.179s0.464-0.062 0.667-0.179l4.667-2.667c0.202-0.117 0.371-0.285 0.488-0.487s0.179-0.432 0.179-0.666v-5.333c-0-0.234-0.062-0.463-0.179-0.666s-0.285-0.371-0.488-0.487l-4.667-2.667c-0.203-0.117-0.433-0.179-0.667-0.179s-0.464 0.062-0.667 0.179l-4.667 2.667c-0.202 0.117-0.371 0.285-0.488 0.487s-0.179 0.432-0.179 0.666v5.333c0 0.234 0.062 0.463 0.179 0.666s0.285 0.371 0.488 0.487l4.667 2.667z"></path>
<path fill="none" stroke="#1447e6" style="stroke: var(--color2, #1447e6)" stroke-linejoin="round" stroke-linecap="round" stroke-miterlimit="4" stroke-width="1.3333" d="M16 22.667v-6.667"></path>
<path fill="none" stroke="#1447e6" style="stroke: var(--color2, #1447e6)" stroke-linejoin="round" stroke-linecap="round" stroke-miterlimit="4" stroke-width="1.3333" d="M10.193 12.667l5.807 3.333 5.807-3.333"></path>
<path fill="none" stroke="#1447e6" style="stroke: var(--color2, #1447e6)" stroke-linejoin="round" stroke-linecap="round" stroke-miterlimit="4" stroke-width="1.3333" d="M13 10.847l6 3.433"></path>
</symbol>
<symbol id="icon-wrench" viewBox="0 0 32 32">
<path fill="#ffedd4" style="fill: var(--color3, #ffedd4)" d="M0 6.667c0-3.682 2.985-6.667 6.667-6.667h18.667c3.682 0 6.667 2.985 6.667 6.667v18.667c0 3.682-2.985 6.667-6.667 6.667h-18.667c-3.682 0-6.667-2.985-6.667-6.667v-18.667z"></path>
<path fill="none" stroke="#ca3500" style="stroke: var(--color4, #ca3500)" stroke-linejoin="round" stroke-linecap="round" stroke-miterlimit="4" stroke-width="1.3333" d="M17.8 12.2c-0.122 0.125-0.191 0.292-0.191 0.467s0.068 0.342 0.191 0.467l1.067 1.067c0.125 0.122 0.292 0.191 0.467 0.191s0.342-0.068 0.467-0.191l2.513-2.513c0.335 0.741 0.437 1.566 0.291 2.366s-0.532 1.536-1.107 2.111c-0.575 0.575-1.312 0.961-2.111 1.107s-1.625 0.044-2.366-0.291l-4.607 4.607c-0.265 0.265-0.625 0.414-1 0.414s-0.735-0.149-1-0.414c-0.265-0.265-0.414-0.625-0.414-1s0.149-0.735 0.414-1l4.607-4.607c-0.335-0.741-0.437-1.566-0.291-2.366s0.532-1.536 1.107-2.111c0.575-0.575 1.311-0.961 2.111-1.107s1.625-0.044 2.366 0.291l-2.513 2.513z"></path>
</symbol>
<symbol id="icon-paint" viewBox="0 0 32 32">
<path fill="#ffedd4" style="fill: var(--color3, #ffedd4)" d="M0 6.667c0-3.682 2.985-6.667 6.667-6.667h18.667c3.682 0 6.667 2.985 6.667 6.667v18.667c0 3.682-2.985 6.667-6.667 6.667h-18.667c-3.682 0-6.667-2.985-6.667-6.667v-18.667z"></path>
<path fill="none" stroke="#ca3500" style="stroke: var(--color4, #ca3500)" stroke-linejoin="round" stroke-linecap="round" stroke-miterlimit="4" stroke-width="1.3333" d="M20.667 15.333l-5.333-5.333-5.733 5.733c-0.244 0.249-0.381 0.584-0.381 0.933s0.137 0.684 0.381 0.933l3.467 3.467c0.533 0.533 1.333 0.533 1.867 0l5.733-5.733z"></path>
<path fill="none" stroke="#ca3500" style="stroke: var(--color4, #ca3500)" stroke-linejoin="round" stroke-linecap="round" stroke-miterlimit="4" stroke-width="1.3333" d="M11.333 9.333l3.333 3.333"></path>
<path fill="none" stroke="#ca3500" style="stroke: var(--color4, #ca3500)" stroke-linejoin="round" stroke-linecap="round" stroke-miterlimit="4" stroke-width="1.3333" d="M9.333 16.667h10"></path>
<path fill="none" stroke="#ca3500" style="stroke: var(--color4, #ca3500)" stroke-linejoin="round" stroke-linecap="round" stroke-miterlimit="4" stroke-width="1.3333" d="M22.667 21.333c0 0.354-0.14 0.693-0.391 0.943s-0.589 0.391-0.943 0.391c-0.354 0-0.693-0.14-0.943-0.391s-0.391-0.589-0.391-0.943c0-1.067 1.133-1.6 1.333-2.667 0.2 1.067 1.333 1.6 1.333 2.667z"></path>
</symbol>
<symbol id="icon-star" viewBox="0 0 32 32">
<path fill="#ffedd4" style="fill: var(--color3, #ffedd4)" d="M0 6.667c0-3.682 2.985-6.667 6.667-6.667h18.667c3.682 0 6.667 2.985 6.667 6.667v18.667c0 3.682-2.985 6.667-6.667 6.667h-18.667c-3.682 0-6.667-2.985-6.667-6.667v-18.667z"></path>
<path fill="none" stroke="#ca3500" style="stroke: var(--color4, #ca3500)" stroke-linejoin="round" stroke-linecap="round" stroke-miterlimit="4" stroke-width="1.3333" d="M14.625 18.333c-0.060-0.231-0.18-0.441-0.348-0.61s-0.379-0.289-0.61-0.348l-4.090-1.055c-0.070-0.020-0.131-0.062-0.175-0.12s-0.067-0.128-0.067-0.201 0.024-0.143 0.067-0.201c0.044-0.058 0.105-0.1 0.175-0.12l4.090-1.055c0.231-0.059 0.441-0.18 0.61-0.348s0.289-0.379 0.348-0.609l1.055-4.090c0.020-0.070 0.062-0.132 0.12-0.176s0.129-0.068 0.201-0.068 0.143 0.024 0.201 0.068c0.058 0.044 0.1 0.106 0.12 0.176l1.054 4.090c0.060 0.231 0.18 0.441 0.348 0.61s0.379 0.289 0.61 0.348l4.090 1.054c0.070 0.019 0.132 0.061 0.177 0.119s0.068 0.129 0.068 0.202-0.024 0.144-0.068 0.202c-0.044 0.058-0.106 0.1-0.177 0.119l-4.090 1.054c-0.231 0.060-0.441 0.18-0.61 0.348s-0.289 0.379-0.348 0.61l-1.055 4.090c-0.020 0.070-0.062 0.132-0.12 0.176s-0.129 0.068-0.201 0.068-0.143-0.024-0.201-0.068c-0.058-0.044-0.1-0.106-0.12-0.176l-1.054-4.090z"></path>
<path fill="none" stroke="#ca3500" style="stroke: var(--color4, #ca3500)" stroke-linejoin="round" stroke-linecap="round" stroke-miterlimit="4" stroke-width="1.3333" d="M21.333 10v2.667"></path>
<path fill="none" stroke="#ca3500" style="stroke: var(--color4, #ca3500)" stroke-linejoin="round" stroke-linecap="round" stroke-miterlimit="4" stroke-width="1.3333" d="M22.667 11.333h-2.667"></path>
<path fill="none" stroke="#ca3500" style="stroke: var(--color4, #ca3500)" stroke-linejoin="round" stroke-linecap="round" stroke-miterlimit="4" stroke-width="1.3333" d="M10.667 19.333v1.333"></path>
<path fill="none" stroke="#ca3500" style="stroke: var(--color4, #ca3500)" stroke-linejoin="round" stroke-linecap="round" stroke-miterlimit="4" stroke-width="1.3333" d="M11.333 20h-1.333"></path>
</symbol>
<symbol id="icon-tacks" viewBox="0 0 32 32">
<path fill="#ffedd4" style="fill: var(--color3, #ffedd4)" d="M0 6.667c0-3.682 2.985-6.667 6.667-6.667h18.667c3.682 0 6.667 2.985 6.667 6.667v18.667c0 3.682-2.985 6.667-6.667 6.667h-18.667c-3.682 0-6.667-2.985-6.667-6.667v-18.667z"></path>
<path fill="none" stroke="#ca3500" style="stroke: var(--color4, #ca3500)" stroke-linejoin="round" stroke-linecap="round" stroke-miterlimit="4" stroke-width="1.3333" d="M10.667 14.667c-0.733 0-1.333-0.6-1.333-1.333v-2.667c0-0.733 0.6-1.333 1.333-1.333h2.667c0.733 0 1.333 0.6 1.333 1.333"></path>
<path fill="none" stroke="#ca3500" style="stroke: var(--color4, #ca3500)" stroke-linejoin="round" stroke-linecap="round" stroke-miterlimit="4" stroke-width="1.3333" d="M14.667 18.667c-0.733 0-1.333-0.6-1.333-1.333v-2.667c0-0.733 0.6-1.333 1.333-1.333h2.667c0.733 0 1.333 0.6 1.333 1.333"></path>
<path fill="none" stroke="#ca3500" style="stroke: var(--color4, #ca3500)" stroke-linejoin="round" stroke-linecap="round" stroke-miterlimit="4" stroke-width="1.3333" d="M21.333 17.333h-2.667c-0.736 0-1.333 0.597-1.333 1.333v2.667c0 0.736 0.597 1.333 1.333 1.333h2.667c0.736 0 1.333-0.597 1.333-1.333v-2.667c0-0.736-0.597-1.333-1.333-1.333z"></path>
</symbol>
<symbol id="icon-lamp" viewBox="0 0 32 32">
<path fill="#dcfce7" style="fill: var(--color5, #dcfce7)" d="M0 6.667c0-3.682 2.985-6.667 6.667-6.667h18.667c3.682 0 6.667 2.985 6.667 6.667v18.667c0 3.682-2.985 6.667-6.667 6.667h-18.667c-3.682 0-6.667-2.985-6.667-6.667v-18.667z"></path>
<path fill="none" stroke="#008236" style="stroke: var(--color6, #008236)" stroke-linejoin="round" stroke-linecap="round" stroke-miterlimit="4" stroke-width="1.3333" d="M18 17.333c0.133-0.667 0.467-1.133 1-1.667 0.667-0.6 1-1.467 1-2.333 0-1.061-0.421-2.078-1.172-2.828s-1.768-1.172-2.828-1.172-2.078 0.421-2.828 1.172c-0.75 0.75-1.172 1.768-1.172 2.828 0 0.667 0.133 1.467 1 2.333 0.467 0.467 0.867 1 1 1.667"></path>
<path fill="none" stroke="#008236" style="stroke: var(--color6, #008236)" stroke-linejoin="round" stroke-linecap="round" stroke-miterlimit="4" stroke-width="1.3333" d="M14 20h4"></path>
<path fill="none" stroke="#008236" style="stroke: var(--color6, #008236)" stroke-linejoin="round" stroke-linecap="round" stroke-miterlimit="4" stroke-width="1.3333" d="M14.667 22.667h2.667"></path>
</symbol>
<symbol id="icon-garbage" viewBox="0 0 32 32">
<path fill="#dcfce7" style="fill: var(--color5, #dcfce7)" d="M0 6.667c0-3.682 2.985-6.667 6.667-6.667h18.667c3.682 0 6.667 2.985 6.667 6.667v18.667c0 3.682-2.985 6.667-6.667 6.667h-18.667c-3.682 0-6.667-2.985-6.667-6.667v-18.667z"></path>
<path fill="none" stroke="#008236" style="stroke: var(--color6, #008236)" stroke-linejoin="round" stroke-linecap="round" stroke-miterlimit="4" stroke-width="1.3333" d="M10 12h12"></path>
<path fill="none" stroke="#008236" style="stroke: var(--color6, #008236)" stroke-linejoin="round" stroke-linecap="round" stroke-miterlimit="4" stroke-width="1.3333" d="M20.667 12v9.333c0 0.667-0.667 1.333-1.333 1.333h-6.667c-0.667 0-1.333-0.667-1.333-1.333v-9.333"></path>
<path fill="none" stroke="#008236" style="stroke: var(--color6, #008236)" stroke-linejoin="round" stroke-linecap="round" stroke-miterlimit="4" stroke-width="1.3333" d="M13.333 12v-1.333c0-0.667 0.667-1.333 1.333-1.333h2.667c0.667 0 1.333 0.667 1.333 1.333v1.333"></path>
<path fill="none" stroke="#008236" style="stroke: var(--color6, #008236)" stroke-linejoin="round" stroke-linecap="round" stroke-miterlimit="4" stroke-width="1.3333" d="M14.667 15.333v4"></path>
<path fill="none" stroke="#008236" style="stroke: var(--color6, #008236)" stroke-linejoin="round" stroke-linecap="round" stroke-miterlimit="4" stroke-width="1.3333" d="M17.333 15.333v4"></path>
</symbol>
<symbol id="icon-snowflake" viewBox="0 0 32 32">
<path fill="#dcfce7" style="fill: var(--color5, #dcfce7)" d="M0 6.667c0-3.682 2.985-6.667 6.667-6.667h18.667c3.682 0 6.667 2.985 6.667 6.667v18.667c0 3.682-2.985 6.667-6.667 6.667h-18.667c-3.682 0-6.667-2.985-6.667-6.667v-18.667z"></path>
<path fill="none" stroke="#008236" style="stroke: var(--color6, #008236)" stroke-linejoin="round" stroke-linecap="round" stroke-miterlimit="4" stroke-width="1.3333" d="M14.667 21.333l-0.833-1.667-1.833 0.333"></path>
<path fill="none" stroke="#008236" style="stroke: var(--color6, #008236)" stroke-linejoin="round" stroke-linecap="round" stroke-miterlimit="4" stroke-width="1.3333" d="M14.667 10.667l-0.833 1.667-1.833-0.333"></path>
<path fill="none" stroke="#008236" style="stroke: var(--color6, #008236)" stroke-linejoin="round" stroke-linecap="round" stroke-miterlimit="4" stroke-width="1.3333" d="M17.333 21.333l0.833-1.667 1.833 0.333"></path>
<path fill="none" stroke="#008236" style="stroke: var(--color6, #008236)" stroke-linejoin="round" stroke-linecap="round" stroke-miterlimit="4" stroke-width="1.3333" d="M17.333 10.667l0.833 1.667 1.833-0.333"></path>
<path fill="none" stroke="#008236" style="stroke: var(--color6, #008236)" stroke-linejoin="round" stroke-linecap="round" stroke-miterlimit="4" stroke-width="1.3333" d="M19.333 22l-2-4h-2.667"></path>
<path fill="none" stroke="#008236" style="stroke: var(--color6, #008236)" stroke-linejoin="round" stroke-linecap="round" stroke-miterlimit="4" stroke-width="1.3333" d="M19.333 10l-2 4 1 2"></path>
<path fill="none" stroke="#008236" style="stroke: var(--color6, #008236)" stroke-linejoin="round" stroke-linecap="round" stroke-miterlimit="4" stroke-width="1.3333" d="M9.333 16h4.333l1-2"></path>
<path fill="none" stroke="#008236" style="stroke: var(--color6, #008236)" stroke-linejoin="round" stroke-linecap="round" stroke-miterlimit="4" stroke-width="1.3333" d="M21.333 14.667l-1 1.333 1 1.333"></path>
<path fill="none" stroke="#008236" style="stroke: var(--color6, #008236)" stroke-linejoin="round" stroke-linecap="round" stroke-miterlimit="4" stroke-width="1.3333" d="M22.667 16h-4.333l-1 2"></path>
<path fill="none" stroke="#008236" style="stroke: var(--color6, #008236)" stroke-linejoin="round" stroke-linecap="round" stroke-miterlimit="4" stroke-width="1.3333" d="M10.667 14.667l1 1.333-1 1.333"></path>
<path fill="none" stroke="#008236" style="stroke: var(--color6, #008236)" stroke-linejoin="round" stroke-linecap="round" stroke-miterlimit="4" stroke-width="1.3333" d="M12.667 22l2-4-1-2"></path>
<path fill="none" stroke="#008236" style="stroke: var(--color6, #008236)" stroke-linejoin="round" stroke-linecap="round" stroke-miterlimit="4" stroke-width="1.3333" d="M12.667 10l2 4h2.667"></path>
</symbol>
<symbol id="icon-scissors" viewBox="0 0 32 32">
<path fill="#dcfce7" style="fill: var(--color5, #dcfce7)" d="M0 6.667c0-3.682 2.985-6.667 6.667-6.667h18.667c3.682 0 6.667 2.985 6.667 6.667v18.667c0 3.682-2.985 6.667-6.667 6.667h-18.667c-3.682 0-6.667-2.985-6.667-6.667v-18.667z"></path>
<path fill="none" stroke="#008236" style="stroke: var(--color6, #008236)" stroke-linejoin="round" stroke-linecap="round" stroke-miterlimit="4" stroke-width="1.3333" d="M12 14c1.105 0 2-0.895 2-2s-0.895-2-2-2c-1.105 0-2 0.895-2 2s0.895 2 2 2z"></path>
<path fill="none" stroke="#008236" style="stroke: var(--color6, #008236)" stroke-linejoin="round" stroke-linecap="round" stroke-miterlimit="4" stroke-width="1.3333" d="M13.413 13.413l2.587 2.587"></path>
<path fill="none" stroke="#008236" style="stroke: var(--color6, #008236)" stroke-linejoin="round" stroke-linecap="round" stroke-miterlimit="4" stroke-width="1.3333" d="M21.333 10.667l-7.92 7.92"></path>
<path fill="none" stroke="#008236" style="stroke: var(--color6, #008236)" stroke-linejoin="round" stroke-linecap="round" stroke-miterlimit="4" stroke-width="1.3333" d="M12 22c1.105 0 2-0.895 2-2s-0.895-2-2-2c-1.105 0-2 0.895-2 2s0.895 2 2 2z"></path>
<path fill="none" stroke="#008236" style="stroke: var(--color6, #008236)" stroke-linejoin="round" stroke-linecap="round" stroke-miterlimit="4" stroke-width="1.3333" d="M17.867 17.867l3.467 3.467"></path>
</symbol>
<symbol id="icon-people" viewBox="0 0 32 32">
<path fill="#ffedd4" style="fill: var(--color3, #ffedd4)" d="M0 16c0-8.837 7.163-16 16-16s16 7.163 16 16c0 8.837-7.163 16-16 16s-16-7.163-16-16z"></path>
<path fill="none" stroke="#f54900" style="stroke: var(--color7, #f54900)" stroke-linejoin="round" stroke-linecap="round" stroke-miterlimit="4" stroke-width="1.3333" d="M18.667 22v-1.333c0-0.707-0.281-1.386-0.781-1.886s-1.178-0.781-1.886-0.781h-4c-0.707 0-1.386 0.281-1.886 0.781s-0.781 1.178-0.781 1.886v1.333"></path>
<path fill="none" stroke="#f54900" style="stroke: var(--color7, #f54900)" stroke-linejoin="round" stroke-linecap="round" stroke-miterlimit="4" stroke-width="1.3333" d="M14 15.333c1.473 0 2.667-1.194 2.667-2.667s-1.194-2.667-2.667-2.667c-1.473 0-2.667 1.194-2.667 2.667s1.194 2.667 2.667 2.667z"></path>
<path fill="none" stroke="#f54900" style="stroke: var(--color7, #f54900)" stroke-linejoin="round" stroke-linecap="round" stroke-miterlimit="4" stroke-width="1.3333" d="M22.667 22v-1.333c-0-0.591-0.197-1.165-0.559-1.632s-0.869-0.8-1.441-0.948"></path>
<path fill="none" stroke="#f54900" style="stroke: var(--color7, #f54900)" stroke-linejoin="round" stroke-linecap="round" stroke-miterlimit="4" stroke-width="1.3333" d="M18.667 10.087c0.574 0.147 1.082 0.48 1.445 0.948s0.56 1.043 0.56 1.635-0.197 1.167-0.56 1.635c-0.363 0.468-0.872 0.801-1.445 0.948"></path>
</symbol>
<symbol id="icon-check_mark" viewBox="0 0 32 32">
<path fill="#ffedd4" style="fill: var(--color3, #ffedd4)" d="M0 16c0-8.837 7.163-16 16-16s16 7.163 16 16c0 8.837-7.163 16-16 16s-16-7.163-16-16z"></path>
<path fill="none" stroke="#f54900" style="stroke: var(--color7, #f54900)" stroke-linejoin="round" stroke-linecap="round" stroke-miterlimit="4" stroke-width="1.3333" d="M22.534 14.667c0.304 1.494 0.087 3.048-0.615 4.401s-1.847 2.426-3.244 3.037c-1.397 0.612-2.961 0.726-4.432 0.323s-2.759-1.297-3.651-2.534c-0.891-1.237-1.331-2.743-1.247-4.265s0.688-2.97 1.711-4.101c1.022-1.131 2.402-1.878 3.908-2.115s3.048 0.049 4.369 0.811"></path>
<path fill="none" stroke="#f54900" style="stroke: var(--color7, #f54900)" stroke-linejoin="round" stroke-linecap="round" stroke-miterlimit="4" stroke-width="1.3333" d="M14 15.333l2 2 6.667-6.667"></path>
</symbol>
<symbol id="icon-clock" viewBox="0 0 32 32">
<path fill="#ffedd4" style="fill: var(--color3, #ffedd4)" d="M0 16c0-8.837 7.163-16 16-16s16 7.163 16 16c0 8.837-7.163 16-16 16s-16-7.163-16-16z"></path>
<path fill="none" stroke="#f54900" style="stroke: var(--color7, #f54900)" stroke-linejoin="round" stroke-linecap="round" stroke-miterlimit="4" stroke-width="1.3333" d="M16 22.667c3.682 0 6.667-2.985 6.667-6.667s-2.985-6.667-6.667-6.667-6.667 2.985-6.667 6.667c0 3.682 2.985 6.667 6.667 6.667z"></path>
<path fill="none" stroke="#f54900" style="stroke: var(--color7, #f54900)" stroke-linejoin="round" stroke-linecap="round" stroke-miterlimit="4" stroke-width="1.3333" d="M16 12v4l2.667 1.333"></path>
</symbol>
<symbol id="icon-qualitet" viewBox="0 0 32 32">
<path fill="#ffedd4" style="fill: var(--color3, #ffedd4)" d="M0 16c0-8.837 7.163-16 16-16s16 7.163 16 16c0 8.837-7.163 16-16 16s-16-7.163-16-16z"></path>
<path fill="none" stroke="#f54900" style="stroke: var(--color7, #f54900)" stroke-linejoin="round" stroke-linecap="round" stroke-miterlimit="4" stroke-width="1.3333" d="M18.318 16.593l1.010 5.684c0.011 0.067 0.002 0.136-0.027 0.197s-0.076 0.113-0.134 0.147-0.126 0.049-0.194 0.044c-0.068-0.006-0.132-0.031-0.185-0.074l-2.387-1.791c-0.115-0.086-0.255-0.133-0.399-0.133s-0.284 0.047-0.399 0.133l-2.391 1.791c-0.052 0.043-0.117 0.069-0.184 0.074s-0.135-0.010-0.194-0.044c-0.059-0.034-0.106-0.085-0.134-0.146s-0.038-0.13-0.027-0.197l1.009-5.684"></path>
<path fill="none" stroke="#f54900" style="stroke: var(--color7, #f54900)" stroke-linejoin="round" stroke-linecap="round" stroke-miterlimit="4" stroke-width="1.3333" d="M16 17.333c2.209 0 4-1.791 4-4s-1.791-4-4-4c-2.209 0-4 1.791-4 4s1.791 4 4 4z"></path>
</symbol>
<symbol id="icon-imouse" viewBox="0 0 32 32">
<path fill="#fff" style="fill: var(--color8, #fff)" opacity="0.5" d="M25.6 9.6h-1.6v12.8h3.2v-12.8h-1.6zM6.4 22.4h1.6v-12.8h-3.2v12.8h1.6zM16 32v-1.6c-4.418 0-8-3.582-8-8h-3.2c0 6.186 5.014 11.2 11.2 11.2v-1.6zM25.6 22.4h-1.6c0 4.418-3.582 8-8 8v3.2c6.186 0 11.2-5.014 11.2-11.2h-1.6zM16 0v1.6c4.418 0 8 3.582 8 8h3.2c0-6.186-5.014-11.2-11.2-11.2v1.6zM16 0v-1.6c-6.186 0-11.2 5.014-11.2 11.2h3.2c0-4.418 3.582-8 8-8v-1.6z"></path>
<path fill="#fff" style="fill: var(--color8, #fff)" opacity="0.5" d="M14.4 9.6c0-0.884 0.716-1.6 1.6-1.6s1.6 0.716 1.6 1.6v6.4c0 0.884-0.716 1.6-1.6 1.6s-1.6-0.716-1.6-1.6v-6.4z"></path>
</symbol>
</defs>
</svg>
