<svg width="179" height="32" viewBox="0 0 179 32" fill="none" xmlns="http://www.w3.org/2000/svg">
<path d="M16 5L7 12V27H25V12L16 5Z" stroke="#0A0A0A" stroke-width="2" stroke-linejoin="round"/>
<path d="M19 18H13V24H19V18Z" stroke="#0A0A0A" stroke-width="1.5"/>
<path d="M16 18V24" stroke="#0A0A0A" stroke-width="1.5"/>
<path d="M13 21H19" stroke="#0A0A0A" stroke-width="1.5"/>
<path d="M41.4347 23V8.45455H44.0696V14.6122H50.8097V8.45455H53.4517V23H50.8097V16.821H44.0696V23H41.4347ZM57.6854 23H54.8729L59.9936 8.45455H63.2464L68.3743 23H65.5618L61.6768 11.4375H61.5632L57.6854 23ZM57.7777 17.2969H65.4482V19.4134H57.7777V17.2969ZM78.9592 8.45455H81.5941V17.9574C81.5941 18.9991 81.3479 19.9152 80.8555 20.706C80.3678 21.4967 79.6812 22.1146 78.7958 22.5597C77.9104 23 76.8758 23.2202 75.6921 23.2202C74.5037 23.2202 73.4667 23 72.5813 22.5597C71.6959 22.1146 71.0094 21.4967 70.5217 20.706C70.034 19.9152 69.7901 18.9991 69.7901 17.9574V8.45455H72.4251V17.7372C72.4251 18.3433 72.5576 18.883 72.8228 19.3565C73.0927 19.83 73.4715 20.2017 73.9592 20.4716C74.4469 20.7367 75.0245 20.8693 75.6921 20.8693C76.3597 20.8693 76.9374 20.7367 77.4251 20.4716C77.9175 20.2017 78.2963 19.83 78.5614 19.3565C78.8266 18.883 78.9592 18.3433 78.9592 17.7372V8.45455ZM91.8629 12.4531C91.7966 11.8329 91.5173 11.3499 91.0249 11.0043C90.5372 10.6586 89.9027 10.4858 89.1214 10.4858C88.5722 10.4858 88.1011 10.5687 87.7081 10.7344C87.3151 10.9001 87.0144 11.125 86.8061 11.4091C86.5978 11.6932 86.4912 12.0175 86.4865 12.3821C86.4865 12.6851 86.5552 12.9479 86.6925 13.1705C86.8345 13.393 87.0263 13.5824 87.2678 13.7386C87.5092 13.8902 87.7768 14.018 88.0703 14.1222C88.3639 14.2263 88.6598 14.3139 88.9581 14.3849L90.3217 14.7259C90.871 14.8537 91.3989 15.0265 91.9055 15.2443C92.4169 15.4621 92.8738 15.7367 93.2763 16.0682C93.6835 16.3996 94.0054 16.7997 94.2422 17.2685C94.4789 17.7372 94.5973 18.2865 94.5973 18.9162C94.5973 19.7685 94.3795 20.5189 93.9439 21.1676C93.5083 21.8116 92.8786 22.3158 92.0547 22.6804C91.2356 23.0402 90.2436 23.2202 89.0788 23.2202C87.9472 23.2202 86.9647 23.045 86.1314 22.6946C85.3028 22.3442 84.6541 21.8329 84.1854 21.1605C83.7214 20.4882 83.4704 19.669 83.4325 18.7031H86.0249C86.0627 19.2098 86.219 19.6312 86.4936 19.9673C86.7682 20.3035 87.1257 20.5545 87.5661 20.7202C88.0111 20.8859 88.5083 20.9688 89.0575 20.9688C89.6304 20.9688 90.1323 20.8835 90.5632 20.7131C90.9988 20.5379 91.3397 20.2964 91.5859 19.9886C91.8321 19.6761 91.9576 19.3116 91.9624 18.8949C91.9576 18.5161 91.8464 18.2036 91.6286 17.9574C91.4107 17.7064 91.1054 17.4981 90.7124 17.3324C90.3241 17.1619 89.8696 17.0104 89.3487 16.8778L87.6939 16.4517C86.496 16.1439 85.549 15.6776 84.853 15.0526C84.1617 14.4228 83.8161 13.5871 83.8161 12.5455C83.8161 11.6884 84.0481 10.938 84.5121 10.294C84.9808 9.65009 85.6177 9.15057 86.4226 8.79545C87.2275 8.43561 88.139 8.25568 89.157 8.25568C90.1892 8.25568 91.0935 8.43561 91.87 8.79545C92.6513 9.15057 93.2644 9.64536 93.7095 10.2798C94.1546 10.9096 94.3842 11.634 94.3984 12.4531H91.8629ZM96.4464 8.45455H99.6708L103.989 18.9943H104.159L108.478 8.45455H111.702V23H109.174V13.0071H109.039L105.019 22.9574H103.13L99.1097 12.9858H98.9748V23H96.4464V8.45455ZM114.071 23V8.45455H123.532V10.6634H116.706V14.6122H123.042V16.821H116.706V20.7912H123.588V23H114.071ZM128.355 8.45455V23H125.72V8.45455H128.355ZM138.613 12.4531C138.547 11.8329 138.267 11.3499 137.775 11.0043C137.287 10.6586 136.653 10.4858 135.871 10.4858C135.322 10.4858 134.851 10.5687 134.458 10.7344C134.065 10.9001 133.764 11.125 133.556 11.4091C133.348 11.6932 133.241 12.0175 133.237 12.3821C133.237 12.6851 133.305 12.9479 133.442 13.1705C133.585 13.393 133.776 13.5824 134.018 13.7386C134.259 13.8902 134.527 14.018 134.82 14.1222C135.114 14.2263 135.41 14.3139 135.708 14.3849L137.072 14.7259C137.621 14.8537 138.149 15.0265 138.656 15.2443C139.167 15.4621 139.624 15.7367 140.026 16.0682C140.433 16.3996 140.755 16.7997 140.992 17.2685C141.229 17.7372 141.347 18.2865 141.347 18.9162C141.347 19.7685 141.129 20.5189 140.694 21.1676C140.258 21.8116 139.629 22.3158 138.805 22.6804C137.986 23.0402 136.994 23.2202 135.829 23.2202C134.697 23.2202 133.715 23.045 132.881 22.6946C132.053 22.3442 131.404 21.8329 130.935 21.1605C130.471 20.4882 130.22 19.669 130.183 18.7031H132.775C132.813 19.2098 132.969 19.6312 133.244 19.9673C133.518 20.3035 133.876 20.5545 134.316 20.7202C134.761 20.8859 135.258 20.9688 135.808 20.9688C136.38 20.9688 136.882 20.8835 137.313 20.7131C137.749 20.5379 138.09 20.2964 138.336 19.9886C138.582 19.6761 138.708 19.3116 138.712 18.8949C138.708 18.5161 138.596 18.2036 138.379 17.9574C138.161 17.7064 137.855 17.4981 137.462 17.3324C137.074 17.1619 136.62 17.0104 136.099 16.8778L134.444 16.4517C133.246 16.1439 132.299 15.6776 131.603 15.0526C130.912 14.4228 130.566 13.5871 130.566 12.5455C130.566 11.6884 130.798 10.938 131.262 10.294C131.731 9.65009 132.368 9.15057 133.173 8.79545C133.978 8.43561 134.889 8.25568 135.907 8.25568C136.939 8.25568 137.844 8.43561 138.62 8.79545C139.401 9.15057 140.014 9.64536 140.46 10.2798C140.905 10.9096 141.134 11.634 141.148 12.4531H138.613ZM142.557 10.6634V8.45455H154.162V10.6634H149.667V23H147.053V10.6634H142.557ZM155.9 23V8.45455H165.36V10.6634H158.534V14.6122H164.87V16.821H158.534V20.7912H165.417V23H155.9ZM167.548 23V8.45455H173.002C174.12 8.45455 175.057 8.64867 175.815 9.03693C176.577 9.42519 177.153 9.9697 177.541 10.6705C177.934 11.3665 178.13 12.1785 178.13 13.1065C178.13 14.0393 177.931 14.849 177.534 15.5355C177.141 16.2173 176.561 16.7453 175.794 17.1193C175.027 17.4886 174.084 17.6733 172.967 17.6733H169.082V15.4858H172.612C173.265 15.4858 173.8 15.3958 174.217 15.2159C174.634 15.0312 174.941 14.7637 175.14 14.4134C175.344 14.0582 175.446 13.6226 175.446 13.1065C175.446 12.5904 175.344 12.1501 175.14 11.7855C174.937 11.4162 174.627 11.1368 174.21 10.9474C173.793 10.7533 173.256 10.6562 172.598 10.6562H170.183V23H167.548ZM175.062 16.4091L178.663 23H175.723L172.186 16.4091H175.062Z" fill="#0A0A0A"/>
</svg>
